<svg xmlns="http://www.w3.org/2000/svg" width="2044pt" height="964" viewBox="0 0 2044 723"><path d="M16.3 16.27c8.1 0 16.19-.01 24.28 0 .02 103.17-.02 206.33.02 309.5 14.22-33.45 38.48-62.21 68.28-82.88 32.2-22.41 69.41-36.98 107.59-45.41 40.81-8.77 83.31-9.39 124.46-2.52 33.01 5.67 65.15 17.5 93.13 36.06 32.06 21.12 58.42 50.54 76.74 84.21 18.81 34.55 28.26 73.67 30.18 112.82 2.13 44.22-3.5 89.53-21.67 130.22-14.57 32.96-37.33 62.11-65.22 84.87-23.81 19.52-51.64 34.02-81.13 42.79-25.57 7.73-52.26 11.29-78.92 12-43.88 1.27-88.18-5.67-129.05-21.92C132.8 663.3 102.23 645.17 78.2 620c-15.96-16.57-28.64-36.19-37.6-57.36-.03 41.45-.01 82.9-.01 124.35-8.1.02-16.19.01-24.29 0 .01-223.57 0-447.15 0-670.72zm666.42 11.17c9.77-.03 19.55-.01 29.33-.01.02 223.55.01 447.11.01 670.67-9.78.01-19.56.01-29.34 0-.01-223.56 0-447.11 0-670.66zm837.02 154.23c52.42-.49 104.86-.11 157.29-.23h180.01c56.88.12 113.77-.25 170.64.22-.02 81.8-.02 163.6.01 245.4.79 28.76-.06 57.75-5.8 86.03-6.75 34.81-20.76 68.37-41.9 96.92-21.84 29.57-50.53 54.22-83.55 70.5-36.88 18.44-78.4 25.87-119.38 26.36-41.6.3-83.85-6.42-121.7-24.26-34.11-15.89-63.84-40.67-86.48-70.65-22.35-29.52-36.98-64.54-43.74-100.87-5.03-25.68-6.02-51.96-5.37-78.06-.03-83.79.02-167.58-.03-251.36zm-492.72 19.34c28.24-8.02 57.69-10.81 86.97-10.76 88.16.17 176.34.08 264.5.04-.02 165.57 0 331.14-.01 496.71-8.1 0-16.2.01-24.29-.01-.01-41.44.04-82.88-.02-124.32-13.39 32.08-35.94 60.06-64 80.51-31.78 23.24-68.94 38.55-107.22 47.17-43.25 9.47-88.36 10.17-131.95 2.6-37.05-6.69-72.88-21.3-102.99-44.07-22.3-16.85-41.74-37.57-56.76-61.17-15.6-24.44-26.17-51.93-31.93-80.3-4.73-23.47-6.46-47.49-5.83-71.4 1.01-42.86 10.88-85.99 31.99-123.53 16.01-28.36 37.62-53.69 63.69-73.28 23.17-17.6 49.87-30.34 77.85-38.19z" stroke="#000"/></svg>