<?xml version="1.0" encoding="UTF-8" standalone="no"?>
<svg
   xmlns:dc="http://purl.org/dc/elements/1.1/"
   xmlns:cc="http://creativecommons.org/ns#"
   xmlns:rdf="http://www.w3.org/1999/02/22-rdf-syntax-ns#"
   xmlns:svg="http://www.w3.org/2000/svg"
   xmlns="http://www.w3.org/2000/svg"
   xmlns:sodipodi="http://sodipodi.sourceforge.net/DTD/sodipodi-0.dtd"
   xmlns:inkscape="http://www.inkscape.org/namespaces/inkscape"
   width="2044pt"
   height="723pt"
   viewBox="0 0 2044 723"
   version="1.1"
   id="svg2"
   inkscape:version="0.91 r13725"
   sodipodi:docname="logo4-optimized.svg"
   inkscape:export-filename="/Users/mabrasil/Google Drive/2 Mini Challenge/Image/Concept 2/Logo/Exported/logo@1x~ipad.png"
   inkscape:export-xdpi="27.983402"
   inkscape:export-ydpi="27.983402">
  <metadata
     id="metadata17">
    <rdf:RDF>
      <cc:Work
         rdf:about="">
        <dc:format>image/svg+xml</dc:format>
        <dc:type
           rdf:resource="http://purl.org/dc/dcmitype/StillImage" />
      </cc:Work>
    </rdf:RDF>
  </metadata>
  <defs
     id="defs15" />
  <sodipodi:namedview
     pagecolor="#ffffff"
     bordercolor="#666666"
     borderopacity="1"
     objecttolerance="10"
     gridtolerance="10"
     guidetolerance="10"
     inkscape:pageopacity="0"
     inkscape:pageshadow="2"
     inkscape:window-width="1280"
     inkscape:window-height="687"
     id="namedview13"
     showgrid="false"
     inkscape:zoom="0.23874755"
     inkscape:cx="1284.9226"
     inkscape:cy="369.58546"
     inkscape:window-x="0"
     inkscape:window-y="1"
     inkscape:window-maximized="1"
     inkscape:current-layer="#000000ff" />
  <g
     id="#000000ff">
    <path
       fill="#000000"
       opacity="1.00"
       d=" M 16.30 16.27 C 24.40 16.27 32.49 16.26 40.58 16.27 C 40.60 119.44 40.56 222.60 40.60 325.77 C 54.82 292.32 79.08 263.56 108.88 242.89 C 141.08 220.48 178.29 205.91 216.47 197.48 C 257.28 188.71 299.78 188.09 340.93 194.96 C 373.94 200.63 406.08 212.46 434.06 231.02 C 466.12 252.14 492.48 281.56 510.80 315.23 C 529.61 349.78 539.06 388.90 540.98 428.05 C 543.11 472.27 537.48 517.58 519.31 558.27 C 504.74 591.23 481.98 620.38 454.09 643.14 C 430.28 662.66 402.45 677.16 372.96 685.93 C 347.39 693.66 320.70 697.22 294.04 697.93 C 250.16 699.20 205.86 692.26 164.99 676.01 C 132.80 663.30 102.23 645.17 78.20 620.00 C 62.24 603.43 49.56 583.81 40.60 562.64 C 40.57 604.09 40.59 645.54 40.59 686.99 C 32.49 687.01 24.40 687.00 16.30 686.99 C 16.31 463.42 16.30 239.84 16.30 16.27 Z"
       id="path5"
       style="stroke:#000000;stroke-opacity:1" />
    <path
       fill="#000000"
       opacity="1.00"
       d=" M 682.72 27.44 C 692.49 27.41 702.27 27.43 712.05 27.43 C 712.07 250.98 712.06 474.54 712.06 698.10 C 702.28 698.11 692.50 698.11 682.72 698.10 C 682.71 474.54 682.72 250.99 682.72 27.44 Z"
       id="path7"
       style="stroke:#000000;stroke-opacity:1" />
    <path
       fill="#000000"
       opacity="1.00"
       d=" M 1519.74 181.67 C 1572.16 181.18 1624.60 181.56 1677.03 181.44 C 1737.03 181.44 1797.03 181.44 1857.04 181.44 C 1913.92 181.56 1970.81 181.19 2027.68 181.66 C 2027.66 263.46 2027.66 345.26 2027.69 427.06 C 2028.48 455.82 2027.63 484.81 2021.89 513.09 C 2015.14 547.90 2001.13 581.46 1979.99 610.01 C 1958.15 639.58 1929.46 664.23 1896.44 680.51 C 1859.56 698.95 1818.04 706.38 1777.06 706.87 C 1735.46 707.17 1693.21 700.45 1655.36 682.61 C 1621.25 666.72 1591.52 641.94 1568.88 611.96 C 1546.53 582.44 1531.90 547.42 1525.14 511.09 C 1520.11 485.41 1519.12 459.13 1519.77 433.03 C 1519.74 349.24 1519.79 265.45 1519.74 181.67 Z"
       id="path9"
       style="stroke:#000000;stroke-opacity:1" />
    <path
       fill="#000000"
       opacity="1.00"
       d=" M 1027.02 201.01 C 1055.26 192.99 1084.71 190.20 1113.99 190.25 C 1202.15 190.42 1290.33 190.33 1378.49 190.29 C 1378.47 355.86 1378.49 521.43 1378.48 687.00 C 1370.38 687.00 1362.28 687.01 1354.19 686.99 C 1354.18 645.55 1354.23 604.11 1354.17 562.67 C 1340.78 594.75 1318.23 622.73 1290.17 643.18 C 1258.39 666.42 1221.23 681.73 1182.95 690.35 C 1139.70 699.82 1094.59 700.52 1051.00 692.95 C 1013.95 686.26 978.12 671.65 948.01 648.88 C 925.71 632.03 906.27 611.31 891.25 587.71 C 875.65 563.27 865.08 535.78 859.32 507.41 C 854.59 483.94 852.86 459.92 853.49 436.01 C 854.50 393.15 864.37 350.02 885.48 312.48 C 901.49 284.12 923.10 258.79 949.17 239.20 C 972.34 221.60 999.04 208.86 1027.02 201.01 Z"
       id="path11"
       style="stroke:#000000;stroke-opacity:1" />
  </g>
</svg>
